<svg xmlns="http://www.w3.org/2000/svg" viewBox="0 0 1100 820" font-family="'Inter', 'SF Pro Display', -apple-system, BlinkMacSystemFont, 'Segoe UI', Roboto, sans-serif">
  <defs>
    <!-- Shadows -->
    <filter id="shadow" x="-4%" y="-4%" width="108%" height="112%">
      <feDropShadow dx="0" dy="2" stdDeviation="4" flood-color="#000" flood-opacity="0.08"/>
    </filter>
    <filter id="shadowLg" x="-4%" y="-4%" width="108%" height="112%">
      <feDropShadow dx="0" dy="4" stdDeviation="8" flood-color="#000" flood-opacity="0.10"/>
    </filter>
    <!-- Gradients -->
    <linearGradient id="bgGrad" x1="0" y1="0" x2="0" y2="1">
      <stop offset="0%" stop-color="#F8FAFC"/>
      <stop offset="100%" stop-color="#EEF2F7"/>
    </linearGradient>
    <linearGradient id="networkGrad" x1="0" y1="0" x2="1" y2="1">
      <stop offset="0%" stop-color="#6366F1" stop-opacity="0.06"/>
      <stop offset="100%" stop-color="#8B5CF6" stop-opacity="0.03"/>
    </linearGradient>
    <linearGradient id="syncGrad" x1="0" y1="0" x2="1" y2="1">
      <stop offset="0%" stop-color="#3B82F6" stop-opacity="0.07"/>
      <stop offset="100%" stop-color="#60A5FA" stop-opacity="0.03"/>
    </linearGradient>
  </defs>

  <!-- Background -->
  <rect width="1100" height="820" rx="16" fill="url(#bgGrad)"/>

  <!-- Title -->
  <text x="550" y="38" text-anchor="middle" font-size="20" font-weight="700" fill="#1E293B" letter-spacing="-0.3">Canton Protocol — Architecture Overview</text>
  <text x="550" y="56" text-anchor="middle" font-size="11" fill="#94A3B8" letter-spacing="0.5">FLAT ICON STYLE · BASED ON WHI-334 §2.1</text>

  <!-- ═══════════════════════════════════════════════════════ -->
  <!--  LAYER 1: APPLICATION LAYER (top)                       -->
  <!-- ═══════════════════════════════════════════════════════ -->
  <g filter="url(#shadow)">
    <rect x="60" y="72" width="980" height="80" rx="12" fill="#FFF" stroke="#E2E8F0" stroke-width="1"/>
    <rect x="60" y="72" width="980" height="4" rx="2" fill="#F59E0B"/>
  </g>
  <text x="88" y="96" font-size="10" font-weight="600" fill="#F59E0B" letter-spacing="1">APPLICATION LAYER</text>

  <!-- gRPC Ledger API -->
  <g filter="url(#shadow)">
    <rect x="88" y="106" width="190" height="34" rx="8" fill="#FFFBEB" stroke="#FDE68A" stroke-width="1"/>
  </g>
  <!-- API icon -->
  <rect x="100" y="114" width="18" height="18" rx="4" fill="#F59E0B" opacity="0.15"/>
  <text x="109" y="127" text-anchor="middle" font-size="11">⚡</text>
  <text x="128" y="127" font-size="11" font-weight="600" fill="#92400E">gRPC Ledger API</text>
  <text x="128" y="137" font-size="8" fill="#B45309">v1 / v2</text>

  <!-- HTTP JSON API -->
  <g filter="url(#shadow)">
    <rect x="296" y="106" width="210" height="34" rx="8" fill="#FFFBEB" stroke="#FDE68A" stroke-width="1"/>
  </g>
  <rect x="308" y="114" width="18" height="18" rx="4" fill="#F59E0B" opacity="0.15"/>
  <text x="317" y="127" text-anchor="middle" font-size="11">🌐</text>
  <text x="336" y="127" font-size="11" font-weight="600" fill="#92400E">HTTP JSON API Service</text>
  <text x="336" y="137" font-size="8" fill="#B45309">REST bridge → gRPC</text>

  <!-- Daml Finance Library -->
  <g filter="url(#shadow)">
    <rect x="524" y="106" width="490" height="34" rx="8" fill="#FFFBEB" stroke="#FDE68A" stroke-width="1"/>
  </g>
  <rect x="536" y="114" width="18" height="18" rx="4" fill="#F59E0B" opacity="0.15"/>
  <text x="545" y="127" text-anchor="middle" font-size="11">📦</text>
  <text x="564" y="127" font-size="11" font-weight="600" fill="#92400E">Daml Finance Library</text>
  <text x="717" y="127" font-size="9" fill="#B45309">bonds · equity · swaps · tokenized assets</text>

  <!-- ═══════════════════════════════════════════════════════ -->
  <!--  LAYER 2: CANTON NETWORK (outer frame)                  -->
  <!-- ═══════════════════════════════════════════════════════ -->
  <rect x="40" y="164" width="1020" height="540" rx="14" fill="url(#networkGrad)" stroke="#C7D2FE" stroke-width="1.5" stroke-dasharray="6 3"/>
  <text x="68" y="184" font-size="10" font-weight="700" fill="#6366F1" letter-spacing="1">CANTON NETWORK</text>
  <text x="215" y="184" font-size="9" fill="#818CF8">Public Permissioned · 450+ Projects</text>

  <!-- ═══════════════════════════════════════════════════════ -->
  <!--  GLOBAL SYNCHRONIZER (top of network)                   -->
  <!-- ═══════════════════════════════════════════════════════ -->
  <g filter="url(#shadowLg)">
    <rect x="240" y="196" width="620" height="72" rx="12" fill="#FFF" stroke="#A5B4FC" stroke-width="1.5"/>
    <rect x="240" y="196" width="620" height="4" rx="2" fill="#6366F1"/>
  </g>
  <text x="270" y="220" font-size="10" font-weight="700" fill="#6366F1" letter-spacing="1">GLOBAL SYNCHRONIZER (GSF)</text>

  <!-- BFT chip -->
  <rect x="270" y="232" width="100" height="24" rx="6" fill="#EEF2FF" stroke="#C7D2FE" stroke-width="1"/>
  <text x="282" y="243" font-size="9">🔗</text>
  <text x="296" y="248" font-size="9" font-weight="600" fill="#4338CA">BFT Consensus</text>

  <!-- Super Validators chip -->
  <rect x="382" y="232" width="124" height="24" rx="6" fill="#EEF2FF" stroke="#C7D2FE" stroke-width="1"/>
  <text x="394" y="243" font-size="9">🛡️</text>
  <text x="408" y="248" font-size="9" font-weight="600" fill="#4338CA">Super Validators</text>

  <!-- Canton Coin chip -->
  <rect x="518" y="232" width="108" height="24" rx="6" fill="#EEF2FF" stroke="#C7D2FE" stroke-width="1"/>
  <text x="530" y="243" font-size="9">🪙</text>
  <text x="544" y="248" font-size="9" font-weight="600" fill="#4338CA">Canton Coin</text>

  <!-- Cross-Domain chip -->
  <rect x="638" y="232" width="200" height="24" rx="6" fill="#EEF2FF" stroke="#C7D2FE" stroke-width="1"/>
  <text x="650" y="243" font-size="9">🔀</text>
  <text x="664" y="248" font-size="9" font-weight="600" fill="#4338CA">Cross-Synchronizer Interop</text>

  <!-- ═══════════════════════════════════════════════════════ -->
  <!--  CONNECTION LINES: Global Sync → Synchronizers          -->
  <!-- ═══════════════════════════════════════════════════════ -->
  <line x1="370" y1="268" x2="195" y2="298" stroke="#A5B4FC" stroke-width="1.5" stroke-dasharray="4 3"/>
  <line x1="550" y1="268" x2="550" y2="298" stroke="#A5B4FC" stroke-width="1.5" stroke-dasharray="4 3"/>
  <line x1="730" y1="268" x2="905" y2="298" stroke="#A5B4FC" stroke-width="1.5" stroke-dasharray="4 3"/>

  <!-- ═══════════════════════════════════════════════════════ -->
  <!--  SYNCHRONIZER A                                         -->
  <!-- ═══════════════════════════════════════════════════════ -->
  <g filter="url(#shadowLg)">
    <rect x="72" y="298" width="290" height="142" rx="12" fill="#FFF" stroke="#93C5FD" stroke-width="1.5"/>
    <rect x="72" y="298" width="290" height="4" rx="2" fill="#3B82F6"/>
  </g>
  <text x="100" y="322" font-size="10" font-weight="700" fill="#2563EB" letter-spacing="0.8">SYNCHRONIZER A</text>

  <!-- Sequencer card -->
  <rect x="90" y="336" width="120" height="88" rx="8" fill="#EFF6FF" stroke="#BFDBFE" stroke-width="1"/>
  <rect x="102" y="348" width="28" height="28" rx="7" fill="#3B82F6"/>
  <text x="116" y="368" text-anchor="middle" font-size="14" fill="#FFF">📡</text>
  <text x="136" y="358" font-size="10" font-weight="700" fill="#1E40AF">Sequencer</text>
  <text x="100" y="388" font-size="8" fill="#3B82F6">▸ Msg Ordering</text>
  <text x="100" y="400" font-size="8" fill="#3B82F6">▸ Privacy Multicast</text>
  <text x="100" y="412" font-size="8" fill="#3B82F6">▸ Opaque Fwd</text>

  <!-- Mediator card -->
  <rect x="224" y="336" width="120" height="88" rx="8" fill="#EFF6FF" stroke="#BFDBFE" stroke-width="1"/>
  <rect x="236" y="348" width="28" height="28" rx="7" fill="#3B82F6"/>
  <text x="250" y="368" text-anchor="middle" font-size="14" fill="#FFF">⚖️</text>
  <text x="270" y="358" font-size="10" font-weight="700" fill="#1E40AF">Mediator</text>
  <text x="234" y="388" font-size="8" fill="#3B82F6">▸ 2PC Coordinator</text>
  <text x="234" y="400" font-size="8" fill="#3B82F6">▸ Verdict Issuing</text>
  <text x="234" y="412" font-size="8" fill="#3B82F6">▸ Blind Consensus</text>

  <!-- ═══════════════════════════════════════════════════════ -->
  <!--  SYNCHRONIZER B                                         -->
  <!-- ═══════════════════════════════════════════════════════ -->
  <g filter="url(#shadowLg)">
    <rect x="400" y="298" width="300" height="142" rx="12" fill="#FFF" stroke="#93C5FD" stroke-width="1.5"/>
    <rect x="400" y="298" width="300" height="4" rx="2" fill="#3B82F6"/>
  </g>
  <text x="428" y="322" font-size="10" font-weight="700" fill="#2563EB" letter-spacing="0.8">SYNCHRONIZER B</text>

  <!-- Sequencer card -->
  <rect x="418" y="336" width="120" height="88" rx="8" fill="#EFF6FF" stroke="#BFDBFE" stroke-width="1"/>
  <rect x="430" y="348" width="28" height="28" rx="7" fill="#3B82F6"/>
  <text x="444" y="368" text-anchor="middle" font-size="14" fill="#FFF">📡</text>
  <text x="464" y="358" font-size="10" font-weight="700" fill="#1E40AF">Sequencer</text>
  <text x="428" y="388" font-size="8" fill="#3B82F6">▸ Msg Ordering</text>
  <text x="428" y="400" font-size="8" fill="#3B82F6">▸ Privacy Multicast</text>
  <text x="428" y="412" font-size="8" fill="#3B82F6">▸ Opaque Fwd</text>

  <!-- Mediator card -->
  <rect x="562" y="336" width="120" height="88" rx="8" fill="#EFF6FF" stroke="#BFDBFE" stroke-width="1"/>
  <rect x="574" y="348" width="28" height="28" rx="7" fill="#3B82F6"/>
  <text x="588" y="368" text-anchor="middle" font-size="14" fill="#FFF">⚖️</text>
  <text x="608" y="358" font-size="10" font-weight="700" fill="#1E40AF">Mediator</text>
  <text x="572" y="388" font-size="8" fill="#3B82F6">▸ 2PC Coordinator</text>
  <text x="572" y="400" font-size="8" fill="#3B82F6">▸ Verdict Issuing</text>
  <text x="572" y="412" font-size="8" fill="#3B82F6">▸ Blind Consensus</text>

  <!-- ═══════════════════════════════════════════════════════ -->
  <!--  SYNCHRONIZER C                                         -->
  <!-- ═══════════════════════════════════════════════════════ -->
  <g filter="url(#shadowLg)">
    <rect x="738" y="298" width="300" height="142" rx="12" fill="#FFF" stroke="#93C5FD" stroke-width="1.5"/>
    <rect x="738" y="298" width="300" height="4" rx="2" fill="#3B82F6"/>
  </g>
  <text x="766" y="322" font-size="10" font-weight="700" fill="#2563EB" letter-spacing="0.8">SYNCHRONIZER C</text>

  <!-- Sequencer card -->
  <rect x="756" y="336" width="120" height="88" rx="8" fill="#EFF6FF" stroke="#BFDBFE" stroke-width="1"/>
  <rect x="768" y="348" width="28" height="28" rx="7" fill="#3B82F6"/>
  <text x="782" y="368" text-anchor="middle" font-size="14" fill="#FFF">📡</text>
  <text x="802" y="358" font-size="10" font-weight="700" fill="#1E40AF">Sequencer</text>
  <text x="766" y="388" font-size="8" fill="#3B82F6">▸ Msg Ordering</text>
  <text x="766" y="400" font-size="8" fill="#3B82F6">▸ Privacy Multicast</text>
  <text x="766" y="412" font-size="8" fill="#3B82F6">▸ Opaque Fwd</text>

  <!-- Mediator card -->
  <rect x="900" y="336" width="120" height="88" rx="8" fill="#EFF6FF" stroke="#BFDBFE" stroke-width="1"/>
  <rect x="912" y="348" width="28" height="28" rx="7" fill="#3B82F6"/>
  <text x="926" y="368" text-anchor="middle" font-size="14" fill="#FFF">⚖️</text>
  <text x="946" y="358" font-size="10" font-weight="700" fill="#1E40AF">Mediator</text>
  <text x="910" y="388" font-size="8" fill="#3B82F6">▸ 2PC Coordinator</text>
  <text x="910" y="400" font-size="8" fill="#3B82F6">▸ Verdict Issuing</text>
  <text x="910" y="412" font-size="8" fill="#3B82F6">▸ Blind Consensus</text>

  <!-- ═══════════════════════════════════════════════════════ -->
  <!--  CONNECTION LINES: Synchronizers → Participants          -->
  <!-- ═══════════════════════════════════════════════════════ -->
  <!-- Sync A → P1 -->
  <line x1="217" y1="440" x2="195" y2="486" stroke="#93C5FD" stroke-width="1.5"/>
  <!-- Sync B → P1, P2 -->
  <line x1="480" y1="440" x2="240" y2="486" stroke="#93C5FD" stroke-width="1.2" stroke-dasharray="4 2"/>
  <line x1="550" y1="440" x2="550" y2="486" stroke="#93C5FD" stroke-width="1.5"/>
  <!-- Sync C → P2, P3 -->
  <line x1="830" y1="440" x2="600" y2="486" stroke="#93C5FD" stroke-width="1.2" stroke-dasharray="4 2"/>
  <line x1="888" y1="440" x2="888" y2="486" stroke="#93C5FD" stroke-width="1.5"/>

  <!-- Key design principle callout -->
  <rect x="370" y="453" width="360" height="22" rx="6" fill="#FEF3C7" stroke="#FDE68A" stroke-width="1"/>
  <text x="382" y="464" font-size="8" fill="#92400E">🔒</text>
  <text x="396" y="468" font-size="8.5" font-weight="600" fill="#92400E">All messages route through Sequencer — no direct Participant↔Mediator</text>

  <!-- ═══════════════════════════════════════════════════════ -->
  <!--  PARTICIPANT P1                                         -->
  <!-- ═══════════════════════════════════════════════════════ -->
  <g filter="url(#shadowLg)">
    <rect x="72" y="486" width="268" height="200" rx="12" fill="#FFF" stroke="#86EFAC" stroke-width="1.5"/>
    <rect x="72" y="486" width="268" height="4" rx="2" fill="#22C55E"/>
  </g>
  <text x="100" y="510" font-size="10" font-weight="700" fill="#16A34A" letter-spacing="0.8">PARTICIPANT P1</text>

  <!-- Party badges -->
  <rect x="100" y="520" width="68" height="20" rx="10" fill="#DCFCE7" stroke="#BBF7D0" stroke-width="1"/>
  <text x="112" y="534" font-size="9" font-weight="600" fill="#166534">👤 Alice</text>
  <rect x="176" y="520" width="68" height="20" rx="10" fill="#DCFCE7" stroke="#BBF7D0" stroke-width="1"/>
  <text x="188" y="534" font-size="9" font-weight="600" fill="#166534">👤 Carol</text>

  <!-- Daml Engine -->
  <rect x="90" y="550" width="232" height="36" rx="8" fill="#F0FDF4" stroke="#BBF7D0" stroke-width="1"/>
  <rect x="102" y="558" width="22" height="22" rx="5" fill="#22C55E"/>
  <text x="113" y="574" text-anchor="middle" font-size="12" fill="#FFF">⚙</text>
  <text x="132" y="572" font-size="10" font-weight="600" fill="#166534">Daml Engine</text>
  <text x="218" y="572" font-size="8" fill="#4ADE80">smart contract execution</text>

  <!-- ACS -->
  <rect x="90" y="594" width="232" height="36" rx="8" fill="#F0FDF4" stroke="#BBF7D0" stroke-width="1"/>
  <rect x="102" y="602" width="22" height="22" rx="5" fill="#22C55E"/>
  <text x="113" y="618" text-anchor="middle" font-size="12" fill="#FFF">📋</text>
  <text x="132" y="616" font-size="10" font-weight="600" fill="#166534">Active Contract Set</text>
  <text x="250" y="616" font-size="8" fill="#4ADE80">ACS</text>

  <!-- PostgreSQL -->
  <rect x="90" y="638" width="232" height="36" rx="8" fill="#F0FDF4" stroke="#BBF7D0" stroke-width="1"/>
  <rect x="102" y="646" width="22" height="22" rx="5" fill="#22C55E"/>
  <text x="113" y="662" text-anchor="middle" font-size="12" fill="#FFF">🗄</text>
  <text x="132" y="660" font-size="10" font-weight="600" fill="#166534">PostgreSQL</text>
  <text x="210" y="660" font-size="8" fill="#4ADE80">storage backend</text>

  <!-- ═══════════════════════════════════════════════════════ -->
  <!--  PARTICIPANT P2                                         -->
  <!-- ═══════════════════════════════════════════════════════ -->
  <g filter="url(#shadowLg)">
    <rect x="372" y="486" width="268" height="200" rx="12" fill="#FFF" stroke="#86EFAC" stroke-width="1.5"/>
    <rect x="372" y="486" width="268" height="4" rx="2" fill="#22C55E"/>
  </g>
  <text x="400" y="510" font-size="10" font-weight="700" fill="#16A34A" letter-spacing="0.8">PARTICIPANT P2</text>

  <!-- Party badges -->
  <rect x="400" y="520" width="60" height="20" rx="10" fill="#DCFCE7" stroke="#BBF7D0" stroke-width="1"/>
  <text x="412" y="534" font-size="9" font-weight="600" fill="#166534">👤 Bob</text>
  <rect x="468" y="520" width="52" height="20" rx="10" fill="#DCFCE7" stroke="#BBF7D0" stroke-width="1"/>
  <text x="480" y="534" font-size="9" font-weight="600" fill="#166534">👤 SR</text>

  <!-- Daml Engine -->
  <rect x="390" y="550" width="232" height="36" rx="8" fill="#F0FDF4" stroke="#BBF7D0" stroke-width="1"/>
  <rect x="402" y="558" width="22" height="22" rx="5" fill="#22C55E"/>
  <text x="413" y="574" text-anchor="middle" font-size="12" fill="#FFF">⚙</text>
  <text x="432" y="572" font-size="10" font-weight="600" fill="#166534">Daml Engine</text>

  <!-- ACS -->
  <rect x="390" y="594" width="232" height="36" rx="8" fill="#F0FDF4" stroke="#BBF7D0" stroke-width="1"/>
  <rect x="402" y="602" width="22" height="22" rx="5" fill="#22C55E"/>
  <text x="413" y="618" text-anchor="middle" font-size="12" fill="#FFF">📋</text>
  <text x="432" y="616" font-size="10" font-weight="600" fill="#166534">Active Contract Set</text>

  <!-- PostgreSQL -->
  <rect x="390" y="638" width="232" height="36" rx="8" fill="#F0FDF4" stroke="#BBF7D0" stroke-width="1"/>
  <rect x="402" y="646" width="22" height="22" rx="5" fill="#22C55E"/>
  <text x="413" y="662" text-anchor="middle" font-size="12" fill="#FFF">🗄</text>
  <text x="432" y="660" font-size="10" font-weight="600" fill="#166534">PostgreSQL</text>

  <!-- ═══════════════════════════════════════════════════════ -->
  <!--  PARTICIPANT P3                                         -->
  <!-- ═══════════════════════════════════════════════════════ -->
  <g filter="url(#shadowLg)">
    <rect x="672" y="486" width="268" height="200" rx="12" fill="#FFF" stroke="#86EFAC" stroke-width="1.5"/>
    <rect x="672" y="486" width="268" height="4" rx="2" fill="#22C55E"/>
  </g>
  <text x="700" y="510" font-size="10" font-weight="700" fill="#16A34A" letter-spacing="0.8">PARTICIPANT P3</text>

  <!-- Party badges -->
  <rect x="700" y="520" width="68" height="20" rx="10" fill="#DCFCE7" stroke="#BBF7D0" stroke-width="1"/>
  <text x="712" y="534" font-size="9" font-weight="600" fill="#166534">🏦 Bank</text>

  <!-- Daml Engine -->
  <rect x="690" y="550" width="232" height="36" rx="8" fill="#F0FDF4" stroke="#BBF7D0" stroke-width="1"/>
  <rect x="702" y="558" width="22" height="22" rx="5" fill="#22C55E"/>
  <text x="713" y="574" text-anchor="middle" font-size="12" fill="#FFF">⚙</text>
  <text x="732" y="572" font-size="10" font-weight="600" fill="#166534">Daml Engine</text>

  <!-- ACS -->
  <rect x="690" y="594" width="232" height="36" rx="8" fill="#F0FDF4" stroke="#BBF7D0" stroke-width="1"/>
  <rect x="702" y="602" width="22" height="22" rx="5" fill="#22C55E"/>
  <text x="713" y="618" text-anchor="middle" font-size="12" fill="#FFF">📋</text>
  <text x="732" y="616" font-size="10" font-weight="600" fill="#166534">Active Contract Set</text>

  <!-- PostgreSQL -->
  <rect x="690" y="638" width="232" height="36" rx="8" fill="#F0FDF4" stroke="#BBF7D0" stroke-width="1"/>
  <rect x="702" y="646" width="22" height="22" rx="5" fill="#22C55E"/>
  <text x="713" y="662" text-anchor="middle" font-size="12" fill="#FFF">🗄</text>
  <text x="732" y="660" font-size="10" font-weight="600" fill="#166534">PostgreSQL</text>

  <!-- ═══════════════════════════════════════════════════════ -->
  <!--  LEGEND                                                 -->
  <!-- ═══════════════════════════════════════════════════════ -->
  <g filter="url(#shadow)">
    <rect x="60" y="720" width="980" height="88" rx="12" fill="#FFF" stroke="#E2E8F0" stroke-width="1"/>
  </g>
  <text x="88" y="742" font-size="10" font-weight="700" fill="#475569" letter-spacing="0.8">LEGEND</text>

  <!-- Layer colors -->
  <rect x="88" y="752" width="14" height="14" rx="3" fill="#F59E0B"/>
  <text x="110" y="764" font-size="9" fill="#64748B">Application Layer</text>

  <rect x="88" y="774" width="14" height="14" rx="3" fill="#6366F1"/>
  <text x="110" y="786" font-size="9" fill="#64748B">Global Synchronizer</text>

  <rect x="240" y="752" width="14" height="14" rx="3" fill="#3B82F6"/>
  <text x="262" y="764" font-size="9" fill="#64748B">Synchronizer (Sequencer + Mediator)</text>

  <rect x="240" y="774" width="14" height="14" rx="3" fill="#22C55E"/>
  <text x="262" y="786" font-size="9" fill="#64748B">Participant (Daml Engine + ACS + DB)</text>

  <!-- Connection types -->
  <line x1="500" y1="760" x2="540" y2="760" stroke="#93C5FD" stroke-width="1.5"/>
  <text x="548" y="764" font-size="9" fill="#64748B">Primary connection</text>

  <line x1="500" y1="782" x2="540" y2="782" stroke="#93C5FD" stroke-width="1.2" stroke-dasharray="4 2"/>
  <text x="548" y="786" font-size="9" fill="#64748B">Multi-Synchronizer connection</text>

  <line x1="700" y1="760" x2="740" y2="760" stroke="#A5B4FC" stroke-width="1.5" stroke-dasharray="6 3"/>
  <text x="748" y="764" font-size="9" fill="#64748B">Global interop link</text>

  <!-- Key principles -->
  <text x="700" y="786" font-size="9" fill="#64748B">🔒 Need-to-know privacy · Sub-transaction Merkle DAG · No global ledger</text>

  <!-- Source attribution -->
  <text x="550" y="810" text-anchor="middle" font-size="8" fill="#CBD5E1">Source: WHI-334 §2.1 Canton Architecture Overview · Digital Asset / Canton Protocol</text>
</svg>