<svg xmlns="http://www.w3.org/2000/svg" viewBox="0 0 1100 1560" width="1100" height="1560" font-family="Inter, system-ui, -apple-system, sans-serif">
  <defs>
    <!-- Background gradient -->
    <linearGradient id="bgGrad" x1="0" y1="0" x2="0" y2="1">
      <stop offset="0%" stop-color="#F8FAFC"/>
      <stop offset="100%" stop-color="#EEF2F7"/>
    </linearGradient>

    <!-- Layer gradients -->
    <linearGradient id="indigoGrad" x1="0" y1="0" x2="1" y2="0">
      <stop offset="0%" stop-color="#4F46E5"/>
      <stop offset="100%" stop-color="#7C3AED"/>
    </linearGradient>
    <linearGradient id="blueGrad" x1="0" y1="0" x2="1" y2="0">
      <stop offset="0%" stop-color="#2563EB"/>
      <stop offset="100%" stop-color="#0EA5E9"/>
    </linearGradient>
    <linearGradient id="greenGrad" x1="0" y1="0" x2="1" y2="0">
      <stop offset="0%" stop-color="#059669"/>
      <stop offset="100%" stop-color="#10B981"/>
    </linearGradient>
    <linearGradient id="slateGrad" x1="0" y1="0" x2="1" y2="0">
      <stop offset="0%" stop-color="#475569"/>
      <stop offset="100%" stop-color="#64748B"/>
    </linearGradient>

    <!-- Drop shadow filter -->
    <filter id="cardShadow" x="-5%" y="-5%" width="110%" height="120%">
      <feDropShadow dx="0" dy="3" stdDeviation="6" flood-color="#1E293B" flood-opacity="0.10"/>
    </filter>
    <filter id="lightShadow" x="-3%" y="-3%" width="106%" height="112%">
      <feDropShadow dx="0" dy="2" stdDeviation="4" flood-color="#1E293B" flood-opacity="0.07"/>
    </filter>
    <filter id="titleShadow" x="-5%" y="-20%" width="110%" height="160%">
      <feDropShadow dx="0" dy="4" stdDeviation="8" flood-color="#4F46E5" flood-opacity="0.20"/>
    </filter>

    <!-- Arrow marker -->
    <marker id="arrowDown" markerWidth="10" markerHeight="10" refX="5" refY="8" orient="auto">
      <path d="M2,2 L5,8 L8,2" fill="none" stroke="#94A3B8" stroke-width="1.5" stroke-linecap="round" stroke-linejoin="round"/>
    </marker>
    <marker id="arrowDownGreen" markerWidth="10" markerHeight="10" refX="5" refY="8" orient="auto">
      <path d="M2,2 L5,8 L8,2" fill="none" stroke="#10B981" stroke-width="1.5" stroke-linecap="round" stroke-linejoin="round"/>
    </marker>
    <marker id="arrowRight" markerWidth="10" markerHeight="10" refX="8" refY="5" orient="auto">
      <path d="M2,2 L8,5 L2,8" fill="none" stroke="#CBD5E1" stroke-width="1.5" stroke-linecap="round" stroke-linejoin="round"/>
    </marker>
    <marker id="arrowRightGreen" markerWidth="10" markerHeight="10" refX="8" refY="5" orient="auto">
      <path d="M2,2 L8,5 L2,8" fill="none" stroke="#10B981" stroke-width="1.5" stroke-linecap="round" stroke-linejoin="round"/>
    </marker>
  </defs>

  <!-- ═══════════════════════════════════════════════ BACKGROUND -->
  <rect width="1100" height="1560" fill="url(#bgGrad)"/>
  <!-- Subtle grid dots -->
  <pattern id="dots" x="0" y="0" width="40" height="40" patternUnits="userSpaceOnUse">
    <circle cx="20" cy="20" r="1" fill="#CBD5E1" opacity="0.4"/>
  </pattern>
  <rect width="1100" height="1560" fill="url(#dots)"/>

  <!-- ═══════════════════════════════════════════════ TITLE BLOCK -->
  <rect x="60" y="28" width="980" height="88" rx="16" fill="white" filter="url(#titleShadow)" opacity="0.95"/>
  <rect x="60" y="28" width="8" height="88" rx="4" fill="url(#indigoGrad)"/>
  <!-- Title emoji badge -->
  <rect x="82" y="44" width="48" height="48" rx="12" fill="#EEF2FF"/>
  <text x="106" y="76" text-anchor="middle" font-size="26">🔐</text>

  <text x="148" y="63" font-size="22" font-weight="700" fill="#1E293B" letter-spacing="-0.5">WHI-337 §2 — Prividium Validium Architecture</text>
  <text x="148" y="86" font-size="13" font-weight="500" fill="#7C3AED" letter-spacing="2">FLAT ICON STYLE</text>
  <text x="1020" y="70" text-anchor="end" font-size="11" fill="#94A3B8">Enterprise Blockchain Feasibility</text>
  <text x="1020" y="88" text-anchor="end" font-size="11" fill="#94A3B8">WHI Research Series · 2026</text>

  <!-- ═══════════════════════════════════════════════ LAYER 1: ETHEREUM MAINNET -->
  <!-- Layer card -->
  <rect x="60" y="142" width="980" height="148" rx="16" fill="white" filter="url(#cardShadow)"/>
  <!-- Accent bar -->
  <rect x="60" y="142" width="980" height="8" rx="8" fill="url(#indigoGrad)"/>
  <!-- Left accent stripe -->
  <rect x="60" y="150" width="6" height="140" fill="url(#indigoGrad)" rx="0"/>
  <!-- Layer badge -->
  <rect x="82" y="160" width="130" height="28" rx="14" fill="url(#indigoGrad)"/>
  <text x="147" y="179" text-anchor="middle" font-size="11" font-weight="700" fill="white" letter-spacing="1">⬡ LAYER 1</text>

  <!-- Title row -->
  <text x="230" y="174" font-size="18" font-weight="700" fill="#312E81" letter-spacing="-0.3">🌐 ETHEREUM MAINNET</text>
  <text x="500" y="174" font-size="12" font-weight="500" fill="#6D28D9">(L1 结算层)</text>

  <!-- Main content box -->
  <rect x="82" y="196" width="696" height="76" rx="12" fill="#EEF2FF" filter="url(#lightShadow)"/>
  <text x="104" y="219" font-size="13" font-weight="600" fill="#4F46E5">📜 State Root + STARK Proof</text>
  <text x="104" y="240" font-size="12" fill="#4338CA">仅密码学承诺, 无交易数据 — 交易细节永不上链</text>
  <text x="104" y="258" font-size="11" fill="#7C3AED">Settlement Layer: 验证零知识证明有效性, 锚定全局状态</text>

  <!-- Side info box -->
  <rect x="796" y="196" width="228" height="76" rx="12" fill="#F5F3FF" filter="url(#lightShadow)"/>
  <text x="910" y="220" text-anchor="middle" font-size="11" font-weight="600" fill="#6D28D9">Gas Cost</text>
  <text x="910" y="238" text-anchor="middle" font-size="22" font-weight="700" fill="#4F46E5">~15k</text>
  <text x="910" y="256" text-anchor="middle" font-size="10" fill="#7C3AED">per batch (STARK verify)</text>


  <!-- ═══════════════════════════════════════════════ ARROW 1→2 -->
  <line x1="550" y1="296" x2="550" y2="336" stroke="#818CF8" stroke-width="2.5" stroke-dasharray="6,3" marker-end="url(#arrowDown)"/>
  <rect x="468" y="305" width="164" height="22" rx="11" fill="#EEF2FF"/>
  <text x="550" y="320" text-anchor="middle" font-size="10" font-weight="600" fill="#4F46E5">STARK 证明提交</text>

  <!-- ═══════════════════════════════════════════════ LAYER 2: ZKSYNC GATEWAY -->
  <rect x="60" y="342" width="980" height="148" rx="16" fill="white" filter="url(#cardShadow)"/>
  <rect x="60" y="342" width="980" height="8" rx="8" fill="url(#blueGrad)"/>
  <rect x="60" y="350" width="6" height="140" fill="url(#blueGrad)" rx="0"/>

  <!-- Layer badge -->
  <rect x="82" y="360" width="130" height="28" rx="14" fill="url(#blueGrad)"/>
  <text x="147" y="379" text-anchor="middle" font-size="11" font-weight="700" fill="white" letter-spacing="1">⬡ LAYER 2</text>

  <text x="230" y="374" font-size="18" font-weight="700" fill="#1E3A5F" letter-spacing="-0.3">🔗 ZKSYNC GATEWAY</text>
  <text x="460" y="374" font-size="12" font-weight="500" fill="#2563EB">(共享结算层)</text>

  <!-- Relayer box -->
  <rect x="82" y="396" width="696" height="76" rx="12" fill="#EFF6FF" filter="url(#lightShadow)"/>
  <text x="104" y="419" font-size="13" font-weight="600" fill="#1D4ED8">🔄 Relayer</text>
  <text x="104" y="440" font-size="12" fill="#2563EB">接收 STARK 证明 → 提交至以太坊进行链上验证</text>
  <text x="104" y="458" font-size="11" fill="#3B82F6">连接多条 ZKsync 链, 统一结算出口 · 批量聚合降低 Gas 成本</text>

  <!-- Side info -->
  <rect x="796" y="396" width="228" height="76" rx="12" fill="#F0F9FF" filter="url(#lightShadow)"/>
  <text x="910" y="420" text-anchor="middle" font-size="11" font-weight="600" fill="#0369A1">Batching</text>
  <text x="910" y="442" text-anchor="middle" font-size="22" font-weight="700" fill="#0EA5E9">多链</text>
  <text x="910" y="460" text-anchor="middle" font-size="10" fill="#0284C7">聚合证明提交</text>

  <!-- ═══════════════════════════════════════════════ ARROW 2→3 -->
  <line x1="550" y1="496" x2="550" y2="536" stroke="#38BDF8" stroke-width="2.5" stroke-dasharray="6,3" marker-end="url(#arrowDown)"/>
  <rect x="452" y="505" width="196" height="22" rx="11" fill="#EFF6FF"/>
  <text x="550" y="520" text-anchor="middle" font-size="10" font-weight="600" fill="#0EA5E9">证明 + 状态根上传</text>

  <!-- ═══════════════════════════════════════════════ LAYER 3: PRIVIDIUM CHAIN -->
  <rect x="60" y="542" width="980" height="598" rx="16" fill="white" filter="url(#cardShadow)"/>
  <rect x="60" y="542" width="980" height="8" rx="8" fill="url(#greenGrad)"/>
  <rect x="60" y="550" width="6" height="590" fill="url(#greenGrad)" rx="0"/>

  <!-- Layer badge -->
  <rect x="82" y="560" width="140" height="28" rx="14" fill="url(#greenGrad)"/>
  <text x="152" y="579" text-anchor="middle" font-size="11" font-weight="700" fill="white" letter-spacing="1">⬡ LAYER 3</text>

  <text x="240" y="574" font-size="18" font-weight="700" fill="#064E3B" letter-spacing="-0.3">🏢 PRIVIDIUM CHAIN</text>
  <text x="500" y="574" font-size="12" font-weight="500" fill="#059669">(私有 Validium — Enterprise ZKsync)</text>

  <!-- ─── Sub-section label: DMZ -->
  <rect x="82" y="598" width="76" height="22" rx="11" fill="#DCFCE7"/>
  <text x="120" y="613" text-anchor="middle" font-size="10" font-weight="700" fill="#166534">🛡️ DMZ 层</text>

  <!-- DMZ cards -->
  <rect x="82" y="626" width="300" height="88" rx="12" fill="#F0FDF4" filter="url(#lightShadow)" stroke="#BBF7D0" stroke-width="1"/>
  <text x="102" y="649" font-size="13">🔀</text>
  <text x="122" y="649" font-size="13" font-weight="600" fill="#166534">Proxy RPC</text>
  <text x="102" y="668" font-size="11" fill="#15803D">访问控制 · IP 白名单</text>
  <text x="102" y="685" font-size="11" fill="#16A34A">速率限制 · TLS 终止</text>
  <text x="102" y="703" font-size="10" fill="#4ADE80">端点: api.prividium.io</text>

  <!-- Arrow DMZ → Explorer -->
  <line x1="388" y1="670" x2="408" y2="670" stroke="#4ADE80" stroke-width="2" marker-end="url(#arrowRightGreen)"/>

  <rect x="414" y="626" width="280" height="88" rx="12" fill="#F0FDF4" filter="url(#lightShadow)" stroke="#BBF7D0" stroke-width="1"/>
  <text x="434" y="649" font-size="13">🔍</text>
  <text x="454" y="649" font-size="13" font-weight="600" fill="#166534">Explorer (私有浏览器)</text>
  <text x="434" y="668" font-size="11" fill="#15803D">许可访问 · 角色过滤</text>
  <text x="434" y="685" font-size="11" fill="#16A34A">交易查询 · 区块浏览</text>
  <text x="434" y="703" font-size="10" fill="#4ADE80">仅授权用户可见</text>

  <!-- ─── Sub-section label: App layer -->
  <rect x="82" y="730" width="120" height="22" rx="11" fill="#D1FAE5"/>
  <text x="142" y="745" text-anchor="middle" font-size="10" font-weight="700" fill="#065F46">⚙️ 应用层 (私有子网)</text>

  <!-- Sequencer -->
  <rect x="82" y="758" width="300" height="104" rx="12" fill="#ECFDF5" filter="url(#lightShadow)" stroke="#A7F3D0" stroke-width="1"/>
  <text x="102" y="781" font-size="13">⚡</text>
  <text x="122" y="781" font-size="13" font-weight="600" fill="#065F46">Sequencer (排序器)</text>
  <text x="102" y="800" font-size="11" fill="#047857">交易接收 · 排序 · 批处理</text>
  <text x="102" y="818" font-size="11" fill="#059669">Block Production (ZKsync Era)</text>
  <text x="102" y="836" font-size="11" fill="#10B981">生成 Batch → 发送至 Prover</text>
  <text x="102" y="854" font-size="10" fill="#34D399">吞吐量: ~1000 TPS</text>

  <!-- Arrow Sequencer → Prover -->
  <line x1="388" y1="810" x2="408" y2="810" stroke="#34D399" stroke-width="2" marker-end="url(#arrowRightGreen)"/>

  <!-- Prover Farm -->
  <rect x="414" y="758" width="280" height="104" rx="12" fill="#ECFDF5" filter="url(#lightShadow)" stroke="#A7F3D0" stroke-width="1"/>
  <text x="434" y="781" font-size="13">🖥️</text>
  <text x="454" y="781" font-size="13" font-weight="600" fill="#065F46">Prover Farm</text>
  <text x="434" y="800" font-size="11" fill="#047857">CPU / GPU 并行证明生成</text>
  <text x="434" y="818" font-size="11" fill="#059669">STARK → SNARK 递归证明</text>
  <text x="434" y="836" font-size="11" fill="#10B981">Boojum 证明系统 (Rust)</text>
  <text x="434" y="854" font-size="10" fill="#34D399">水平扩展: N 台 Worker</text>

  <!-- Right side: prover → gateway arrow indicator -->
  <rect x="718" y="758" width="246" height="104" rx="12" fill="#F0FDF4" filter="url(#lightShadow)" stroke="#BBF7D0" stroke-width="1.5" stroke-dasharray="6,3"/>
  <text x="841" y="798" text-anchor="middle" font-size="13">↑</text>
  <text x="841" y="816" text-anchor="middle" font-size="11" fill="#059669">证明完成后</text>
  <text x="841" y="834" text-anchor="middle" font-size="11" fill="#059669">上传至 Gateway</text>
  <text x="841" y="852" text-anchor="middle" font-size="10" fill="#4ADE80">(异步批量提交)</text>

  <!-- ─── Sub-section label: Data layer -->
  <rect x="82" y="878" width="80" height="22" rx="11" fill="#DCFCE7"/>
  <text x="122" y="893" text-anchor="middle" font-size="10" font-weight="700" fill="#166534">💾 数据层</text>

  <!-- PostgreSQL -->
  <rect x="82" y="906" width="440" height="76" rx="12" fill="#F0FDF4" filter="url(#lightShadow)" stroke="#BBF7D0" stroke-width="1"/>
  <text x="102" y="929" font-size="13">🐘</text>
  <text x="122" y="929" font-size="13" font-weight="600" fill="#166534">PostgreSQL</text>
  <text x="102" y="948" font-size="11" fill="#15803D">完整 L2 状态存储 · 账户余额 · 交易历史</text>
  <text x="102" y="966" font-size="11" fill="#16A34A">加密存储 · 运营商控制访问 (Data Availability)</text>

  <!-- Blob Storage -->
  <rect x="540" y="906" width="424" height="76" rx="12" fill="#F0FDF4" filter="url(#lightShadow)" stroke="#BBF7D0" stroke-width="1"/>
  <text x="560" y="929" font-size="13">🗄️</text>
  <text x="580" y="929" font-size="13" font-weight="600" fill="#166534">Blob Storage</text>
  <text x="560" y="948" font-size="11" fill="#15803D">大型数据对象 · 加密 Blob · S3 兼容接口</text>
  <text x="560" y="966" font-size="11" fill="#16A34A">完全私有 — L1 永不知晓内容</text>

  <!-- ─── Permissioning bar -->
  <rect x="82" y="998" width="938" height="70" rx="12" fill="url(#greenGrad)" filter="url(#lightShadow)" opacity="0.92"/>
  <text x="102" y="1021" font-size="11" font-weight="700" fill="white">🔑 PERMISSIONING SYSTEM</text>
  <text x="270" y="1021" font-size="11" fill="#D1FAE5">Admin Dashboard</text>
  <text x="390" y="1021" font-size="16" fill="white">→</text>
  <text x="412" y="1021" font-size="11" fill="#D1FAE5">用户 / 角色 / 权限管理</text>
  <text x="582" y="1021" font-size="16" fill="white">→</text>
  <text x="604" y="1021" font-size="11" fill="#D1FAE5">Prividium API</text>
  <text x="720" y="1021" font-size="16" fill="white">→</text>
  <text x="742" y="1021" font-size="11" fill="#D1FAE5">RBAC · 细粒度访问</text>

  <!-- Auth line -->
  <text x="102" y="1049" font-size="11" fill="#D1FAE5">🔐 Authentication:</text>
  <text x="222" y="1049" font-size="11" font-weight="600" fill="white">Okta SSO (OIDC)</text>
  <text x="356" y="1049" font-size="11" fill="#D1FAE5"> / </text>
  <text x="370" y="1049" font-size="11" font-weight="600" fill="white">SIWE (Sign-In With Ethereum)</text>
  <text x="596" y="1049" font-size="11" fill="#D1FAE5"> / </text>
  <text x="612" y="1049" font-size="11" font-weight="600" fill="white">混合模式 (Hybrid)</text>

  <!-- ═══════════════════════════════════════════════ DATA FLOW ARROW 3→2 (right side) -->
  <line x1="550" y1="1146" x2="550" y2="1186" stroke="#6EE7B7" stroke-width="2.5" stroke-dasharray="6,3" marker-end="url(#arrowDownGreen)"/>
  <rect x="456" y="1156" width="188" height="22" rx="11" fill="#D1FAE5"/>
  <text x="550" y="1171" text-anchor="middle" font-size="10" font-weight="600" fill="#059669">状态根 + 证明上传</text>

  <!-- ═══════════════════════════════════════════════ DATA FLOW SUMMARY -->
  <rect x="60" y="1192" width="980" height="106" rx="16" fill="white" filter="url(#cardShadow)"/>
  <rect x="60" y="1192" width="8" height="106" rx="4" fill="url(#slateGrad)"/>
  <text x="84" y="1215" font-size="13" font-weight="700" fill="#334155">📊 DATA FLOW — 完整交易路径</text>

  <!-- Flow pills -->
  <g transform="translate(84, 1228)">
    <!-- User -->
    <rect x="0" y="0" width="80" height="32" rx="16" fill="#1E293B"/>
    <text x="40" y="21" text-anchor="middle" font-size="11" font-weight="600" fill="white">👤 用户</text>
    <!-- Arrow -->
    <text x="90" y="21" font-size="16" fill="#94A3B8">→</text>
    <!-- Auth -->
    <rect x="108" y="0" width="80" height="32" rx="16" fill="#7C3AED"/>
    <text x="148" y="21" text-anchor="middle" font-size="11" font-weight="600" fill="white">🔐 认证</text>
    <!-- Arrow -->
    <text x="198" y="21" font-size="16" fill="#94A3B8">→</text>
    <!-- Proxy -->
    <rect x="216" y="0" width="100" height="32" rx="16" fill="#059669"/>
    <text x="266" y="21" text-anchor="middle" font-size="11" font-weight="600" fill="white">🔀 Proxy RPC</text>
    <!-- Arrow -->
    <text x="326" y="21" font-size="16" fill="#94A3B8">→</text>
    <!-- Sequencer -->
    <rect x="344" y="0" width="100" height="32" rx="16" fill="#0EA5E9"/>
    <text x="394" y="21" text-anchor="middle" font-size="11" font-weight="600" fill="white">⚡ Sequencer</text>
    <!-- Arrow -->
    <text x="454" y="21" font-size="16" fill="#94A3B8">→</text>
    <!-- Prover -->
    <rect x="472" y="0" width="80" height="32" rx="16" fill="#0EA5E9"/>
    <text x="512" y="21" text-anchor="middle" font-size="11" font-weight="600" fill="white">🖥️ Prover</text>
    <!-- Arrow -->
    <text x="562" y="21" font-size="16" fill="#94A3B8">→</text>
    <!-- Gateway -->
    <rect x="580" y="0" width="90" height="32" rx="16" fill="#2563EB"/>
    <text x="625" y="21" text-anchor="middle" font-size="11" font-weight="600" fill="white">🔗 Gateway</text>
    <!-- Arrow -->
    <text x="680" y="21" font-size="16" fill="#94A3B8">→</text>
    <!-- Ethereum -->
    <rect x="698" y="0" width="100" height="32" rx="16" fill="#4F46E5"/>
    <text x="748" y="21" text-anchor="middle" font-size="11" font-weight="600" fill="white">🌐 Ethereum</text>
  </g>

  <!-- ═══════════════════════════════════════════════ COMPARISON TABLE -->
  <rect x="60" y="1324" width="980" height="200" rx="16" fill="white" filter="url(#cardShadow)"/>
  <rect x="60" y="1324" width="980" height="8" rx="8" fill="url(#slateGrad)"/>
  <rect x="60" y="1332" width="6" height="192" fill="url(#slateGrad)" rx="0"/>

  <text x="84" y="1360" font-size="14" font-weight="700" fill="#1E293B">⚖️ 对比分析 — Validium vs ZK Rollup</text>

  <!-- Table header -->
  <rect x="84" y="1372" width="940" height="34" rx="8" fill="#F1F5F9"/>
  <text x="240" y="1393" text-anchor="middle" font-size="12" font-weight="700" fill="#475569">特性</text>
  <line x1="400" y1="1372" x2="400" y2="1406" stroke="#E2E8F0" stroke-width="1"/>
  <text x="620" y="1393" text-anchor="middle" font-size="12" font-weight="700" fill="#2563EB">ZK Rollup</text>
  <line x1="840" y1="1372" x2="840" y2="1406" stroke="#E2E8F0" stroke-width="1"/>
  <text x="962" y="1393" text-anchor="middle" font-size="12" font-weight="700" fill="#059669">Validium (Prividium)</text>

  <!-- Row 1 -->
  <rect x="84" y="1406" width="940" height="38" rx="0" fill="#FAFAFA"/>
  <text x="240" y="1429" text-anchor="middle" font-size="12" fill="#374151">交易数据</text>
  <line x1="400" y1="1406" x2="400" y2="1444" stroke="#E2E8F0" stroke-width="1"/>
  <rect x="440" y="1414" width="120" height="22" rx="11" fill="#DBEAFE"/>
  <text x="500" y="1429" text-anchor="middle" font-size="11" font-weight="500" fill="#1D4ED8">L1 链上 (Calldata)</text>
  <line x1="840" y1="1406" x2="840" y2="1444" stroke="#E2E8F0" stroke-width="1"/>
  <rect x="878" y="1414" width="108" height="22" rx="11" fill="#D1FAE5"/>
  <text x="932" y="1429" text-anchor="middle" font-size="11" font-weight="500" fill="#065F46">运营商私有存储</text>

  <!-- Row 2 -->
  <rect x="84" y="1444" width="940" height="38" rx="0" fill="white"/>
  <text x="240" y="1467" text-anchor="middle" font-size="12" fill="#374151">L1 可见内容</text>
  <line x1="400" y1="1444" x2="400" y2="1482" stroke="#E2E8F0" stroke-width="1"/>
  <text x="620" y="1467" text-anchor="middle" font-size="11" fill="#374151">Calldata + 证明 + 状态根</text>
  <line x1="840" y1="1444" x2="840" y2="1482" stroke="#E2E8F0" stroke-width="1"/>
  <text x="962" y="1467" text-anchor="middle" font-size="11" fill="#374151">仅状态根 + 证明</text>

  <!-- Row 3 -->
  <rect x="84" y="1482" width="940" height="38" rx="0" fill="#FAFAFA"/>
  <text x="240" y="1505" text-anchor="middle" font-size="12" fill="#374151">隐私性</text>
  <line x1="400" y1="1482" x2="400" y2="1520" stroke="#E2E8F0" stroke-width="1"/>
  <rect x="460" y="1490" width="100" height="22" rx="11" fill="#FEF9C3"/>
  <text x="510" y="1505" text-anchor="middle" font-size="11" font-weight="500" fill="#713F12">⚠️ 公开透明</text>
  <line x1="840" y1="1482" x2="840" y2="1520" stroke="#E2E8F0" stroke-width="1"/>
  <rect x="878" y="1490" width="108" height="22" rx="11" fill="#D1FAE5"/>
  <text x="932" y="1505" text-anchor="middle" font-size="11" font-weight="500" fill="#065F46">✅ 完全私有</text>

  <!-- Table bottom border -->
  <rect x="84" y="1518" width="940" height="2" rx="1" fill="#E2E8F0"/>

  <!-- ═══════════════════════════════════════════════ FOOTER -->
  <text x="550" y="1548" text-anchor="middle" font-size="10" fill="#94A3B8">WHI-337 §2 · Prividium Validium Architecture · Enterprise Blockchain Feasibility Study · 2026</text>
</svg>
