<?xml version="1.0" encoding="UTF-8"?>
<svg xmlns="http://www.w3.org/2000/svg" viewBox="0 0 1320 820" font-family="-apple-system, BlinkMacSystemFont, Segoe UI, Helvetica, Arial, sans-serif">
  <defs>
    <marker id="arr-l1" viewBox="0 0 10 10" refX="9" refY="5" markerWidth="9" markerHeight="9" orient="auto-start-reverse"><path d="M0,0 L10,5 L0,10 Z" fill="#0891b2"/></marker>
    <marker id="arr-l2" viewBox="0 0 10 10" refX="9" refY="5" markerWidth="9" markerHeight="9" orient="auto-start-reverse"><path d="M0,0 L10,5 L0,10 Z" fill="#059669"/></marker>
    <marker id="arr-tee" viewBox="0 0 10 10" refX="9" refY="5" markerWidth="9" markerHeight="9" orient="auto-start-reverse"><path d="M0,0 L10,5 L0,10 Z" fill="#2563eb"/></marker>
    <marker id="arr-zk" viewBox="0 0 10 10" refX="9" refY="5" markerWidth="9" markerHeight="9" orient="auto-start-reverse"><path d="M0,0 L10,5 L0,10 Z" fill="#7c3aed"/></marker>
    <marker id="arr-reg" viewBox="0 0 10 10" refX="9" refY="5" markerWidth="9" markerHeight="9" orient="auto-start-reverse"><path d="M0,0 L10,5 L0,10 Z" fill="#b45309"/></marker>
    <marker id="arr-game" viewBox="0 0 10 10" refX="9" refY="5" markerWidth="9" markerHeight="9" orient="auto-start-reverse"><path d="M0,0 L10,5 L0,10 Z" fill="#0f172a"/></marker>
    <filter id="sh" x="-20%" y="-20%" width="140%" height="140%"><feDropShadow dx="0" dy="2" stdDeviation="2.5" flood-color="#0f172a" flood-opacity="0.12"/></filter>
    <filter id="sh-hi" x="-20%" y="-20%" width="140%" height="140%"><feDropShadow dx="0" dy="3" stdDeviation="4" flood-color="#b45309" flood-opacity="0.3"/></filter>
  </defs>
  <rect width="1320" height="820" fill="#ffffff"/>
  <text x="660" y="44" text-anchor="middle" font-size="22" font-weight="700" fill="#0f172a">Base Azul — Off-Chain Multiproof Service Map</text>
  <text x="660" y="68" text-anchor="middle" font-size="13" fill="#64748b">5 Rust services orchestrate the on-chain AggregateVerifier · L1 + L2 inputs feed services · TEE / ZK / Registrar route to verifiers</text>
  <rect x="40" y="110" width="180" height="600" rx="14" fill="#ecfeff" stroke="#a5f3fc" stroke-width="1.5" stroke-dasharray="5,4"/>
  <text x="60" y="134" font-size="12" font-weight="700" fill="#0e7490" letter-spacing="1">INPUTS</text>
  <rect x="280" y="110" width="320" height="600" rx="14" fill="#fafafa" stroke="#d4d4d8" stroke-width="1.5" stroke-dasharray="5,4"/>
  <text x="300" y="134" font-size="12" font-weight="700" fill="#3f3f46" letter-spacing="1">OFF-CHAIN RUST SERVICES (5)</text>
  <rect x="660" y="110" width="320" height="600" rx="14" fill="#fef3c7" stroke="#fcd34d" stroke-width="1.5" stroke-dasharray="5,4"/>
  <text x="680" y="134" font-size="12" font-weight="700" fill="#92400e" letter-spacing="1">ON-CHAIN VERIFIERS</text>
  <rect x="1020" y="370" width="280" height="240" rx="14" fill="#fff7ed" stroke="#fed7aa" stroke-width="1.5" stroke-dasharray="5,4"/>
  <text x="1040" y="394" font-size="12" font-weight="700" fill="#9a3412" letter-spacing="1">CONVERGENCE</text>
  <g filter="url(#sh)">
    <rect x="60" y="220" width="140" height="70" rx="8" fill="#ffffff" stroke="#0891b2" stroke-width="1.8"/>
    <text x="130.0" y="251.0" text-anchor="middle" font-size="14" font-weight="700" fill="#155e75">L1 RPC</text>
    <text x="130.0" y="269.0" text-anchor="middle" font-size="11" fill="#0e7490">Ethereum mainnet</text>
  </g>
  <g filter="url(#sh)">
    <rect x="60" y="510" width="140" height="70" rx="8" fill="#ffffff" stroke="#059669" stroke-width="1.8"/>
    <text x="130.0" y="541.0" text-anchor="middle" font-size="14" font-weight="700" fill="#064e3b">L2 RPC</text>
    <text x="130.0" y="559.0" text-anchor="middle" font-size="11" fill="#047857">Base mainnet</text>
  </g>
  <g filter="url(#sh)">
    <rect x="300" y="160" width="280" height="78" rx="8" fill="#ffffff" stroke="#3f3f46" stroke-width="1.6"/>
    <text x="440.0" y="187.0" text-anchor="middle" font-size="14" font-weight="700" fill="#18181b">Proposer</text>
    <text x="440.0" y="205.0" text-anchor="middle" font-size="10.5" fill="#52525b">recover_latest_state cache</text>
    <text x="440.0" y="220.0" text-anchor="middle" font-size="10.5" fill="#52525b">UUID forward-walk · race-safe</text>
  </g>
  <g filter="url(#sh)">
    <rect x="300" y="275" width="280" height="78" rx="8" fill="#eff6ff" stroke="#2563eb" stroke-width="1.6"/>
    <text x="440.0" y="302.0" text-anchor="middle" font-size="14" font-weight="700" fill="#1e3a8a">TEE Prover</text>
    <text x="440.0" y="320.0" text-anchor="middle" font-size="10.5" fill="#1d4ed8">host ↔ enclave (vsock + NSM)</text>
    <text x="440.0" y="335.0" text-anchor="middle" font-size="10.5" fill="#1d4ed8">PCR0 · secp256k1 in-enclave</text>
  </g>
  <g filter="url(#sh)">
    <rect x="300" y="390" width="280" height="78" rx="8" fill="#f5f3ff" stroke="#7c3aed" stroke-width="1.6"/>
    <text x="440.0" y="417.0" text-anchor="middle" font-size="14" font-weight="700" fill="#4c1d95">ZK Prover</text>
    <text x="440.0" y="435.0" text-anchor="middle" font-size="10.5" fill="#6d28d9">SP1 Range + Groth16</text>
    <text x="440.0" y="450.0" text-anchor="middle" font-size="10.5" fill="#6d28d9">cluster · mock · network backends</text>
  </g>
  <g filter="url(#sh)">
    <rect x="300" y="505" width="280" height="78" rx="8" fill="#ffffff" stroke="#3f3f46" stroke-width="1.6"/>
    <text x="440.0" y="532.0" text-anchor="middle" font-size="14" font-weight="700" fill="#18181b">Challenger</text>
    <text x="440.0" y="550.0" text-anchor="middle" font-size="10.5" fill="#52525b">4 GameCategory @ scanner.rs:514</text>
    <text x="440.0" y="565.0" text-anchor="middle" font-size="10.5" fill="#52525b">TEE-first nullify() · ZK fallback</text>
  </g>
  <g filter="url(#sh)">
    <rect x="300" y="620" width="280" height="78" rx="8" fill="#fff7ed" stroke="#b45309" stroke-width="1.6"/>
    <text x="440.0" y="647.0" text-anchor="middle" font-size="14" font-weight="700" fill="#7c2d12">Prover Registrar</text>
    <text x="440.0" y="665.0" text-anchor="middle" font-size="10.5" fill="#92400e">active-set + majority guard</text>
    <text x="440.0" y="680.0" text-anchor="middle" font-size="10.5" fill="#92400e">ghost-entry · single-registrar</text>
  </g>
  <g filter="url(#sh)">
    <rect x="680" y="165" width="280" height="66" rx="8" fill="#ffffff" stroke="#475569" stroke-width="1.6"/>
    <text x="820.0" y="194.0" text-anchor="middle" font-size="14" font-weight="700" fill="#0f172a">DisputeGameFactory</text>
    <text x="820.0" y="212.0" text-anchor="middle" font-size="11" fill="#475569">create() emits new game</text>
  </g>
  <g filter="url(#sh)">
    <rect x="680" y="280" width="280" height="66" rx="8" fill="#dbeafe" stroke="#1d4ed8" stroke-width="1.8"/>
    <text x="820.0" y="309.0" text-anchor="middle" font-size="14" font-weight="700" fill="#1e3a8a">TEEVerifier</text>
    <text x="820.0" y="327.0" text-anchor="middle" font-size="11" fill="#1d4ed8">nullify() entry point</text>
  </g>
  <g filter="url(#sh)">
    <rect x="680" y="395" width="280" height="66" rx="8" fill="#ede9fe" stroke="#6d28d9" stroke-width="1.8"/>
    <text x="820.0" y="424.0" text-anchor="middle" font-size="14" font-weight="700" fill="#4c1d95">ZKVerifier</text>
    <text x="820.0" y="442.0" text-anchor="middle" font-size="11" fill="#6d28d9">challenge() fallback</text>
  </g>
  <g filter="url(#sh-hi)">
    <rect x="1040" y="425" width="240" height="160" rx="10" fill="#fffbeb" stroke="#d97706" stroke-width="2.4"/>
    <text x="1160" y="458" text-anchor="middle" font-size="16" font-weight="800" fill="#7c2d12">AggregateVerifier</text>
    <text x="1160" y="482" text-anchor="middle" font-size="11" fill="#92400e">1041 LOC Solidity</text>
    <text x="1160" y="502" text-anchor="middle" font-size="11" fill="#92400e">PROOF_THRESHOLD = 1</text>
    <text x="1160" y="524" text-anchor="middle" font-size="10" fill="#7c2d12" font-style="italic">SLOW = 7d · FAST = 1d</text>
    <text x="1160" y="550" text-anchor="middle" font-size="10" fill="#7c2d12" font-style="italic">Path C: min(7d, sec+1d)</text>
    <text x="1160" y="572" text-anchor="middle" font-size="10" fill="#7c2d12">see §4.1 for topology</text>
  </g>
  <path d="M 200,238 L 252,238 L 252,180 L 300,180" stroke="#0891b2" stroke-width="2" fill="none" marker-end="url(#arr-l1)"/>
  <path d="M 200,260 L 244,260 L 244,530 L 300,530" stroke="#0891b2" stroke-width="2" fill="none" marker-end="url(#arr-l1)"/>
  <path d="M 200,528 L 260,528 L 260,212 L 300,212" stroke="#059669" stroke-width="2" fill="none" marker-end="url(#arr-l2)"/>
  <path d="M 200,540 L 268,540 L 268,308 L 300,308" stroke="#059669" stroke-width="2" fill="none" marker-end="url(#arr-l2)"/>
  <path d="M 200,556 L 252,556 L 252,422 L 300,422" stroke="#059669" stroke-width="2" fill="none" marker-end="url(#arr-l2)"/>
  <path d="M 580,199 L 680,198" stroke="#0f172a" stroke-width="2" fill="none" marker-end="url(#arr-game)"/>
  <rect x="595" y="180" width="74" height="16" fill="#fafafa" opacity="0.95"/>
  <text x="632" y="192" text-anchor="middle" font-size="10.5" font-weight="600" fill="#0f172a">create()</text>
  <path d="M 580,314 L 680,313" stroke="#2563eb" stroke-width="2.2" fill="none" marker-end="url(#arr-tee)"/>
  <rect x="595" y="296" width="74" height="16" fill="#fafafa" opacity="0.95"/>
  <text x="632" y="308" text-anchor="middle" font-size="10.5" font-weight="600" fill="#1e40af">TEE proof</text>
  <path d="M 580,429 L 680,428" stroke="#7c3aed" stroke-width="2.2" fill="none" marker-end="url(#arr-zk)"/>
  <rect x="595" y="411" width="74" height="16" fill="#fafafa" opacity="0.95"/>
  <text x="632" y="423" text-anchor="middle" font-size="10.5" font-weight="600" fill="#5b21b6">ZK proof</text>
  <path d="M 580,544 C 700,544 720,544 820,544 C 920,544 980,505 1040,505" stroke="#0f172a" stroke-width="2" fill="none" marker-end="url(#arr-game)"/>
  <rect x="700" y="528" width="120" height="16" fill="#fef3c7" opacity="0.95"/>
  <text x="760" y="540" text-anchor="middle" font-size="10.5" font-weight="600" fill="#0f172a">nullify() / challenge()</text>
  <path d="M 580,640 C 620,640 626,313 680,313" stroke="#b45309" stroke-width="1.6" fill="none" stroke-dasharray="6,3" marker-end="url(#arr-reg)"/>
  <path d="M 580,660 C 630,660 626,428 680,428" stroke="#b45309" stroke-width="1.6" fill="none" stroke-dasharray="6,3" marker-end="url(#arr-reg)"/>
  <rect x="600" y="555" width="84" height="18" fill="#fafafa" opacity="0.95"/>
  <text x="642" y="568" text-anchor="middle" font-size="10.5" font-weight="600" fill="#b45309">active-set</text>
  <path d="M 960,313 C 1000,313 1015,475 1040,475" stroke="#2563eb" stroke-width="2.2" fill="none" marker-end="url(#arr-tee)"/>
  <path d="M 960,428 C 1000,428 1015,495 1040,495" stroke="#7c3aed" stroke-width="2.2" fill="none" marker-end="url(#arr-zk)"/>
  <rect x="60" y="730" width="1200" height="68" rx="8" fill="#ffffff" stroke="#cbd5e1" stroke-width="1"/>
  <text x="76" y="752" font-size="11" font-weight="700" fill="#0f172a" letter-spacing="0.5">LEGEND</text>
  <line x1="170" y1="774" x2="200" y2="774" stroke="#0891b2" stroke-width="2.4"/>
  <text x="208" y="778" font-size="11" fill="#0f172a">L1 input</text>
  <line x1="290" y1="774" x2="320" y2="774" stroke="#059669" stroke-width="2.4"/>
  <text x="328" y="778" font-size="11" fill="#0f172a">L2 input</text>
  <line x1="410" y1="774" x2="440" y2="774" stroke="#2563eb" stroke-width="2.4"/>
  <text x="448" y="778" font-size="11" fill="#0f172a">TEE proof</text>
  <line x1="530" y1="774" x2="560" y2="774" stroke="#7c3aed" stroke-width="2.4"/>
  <text x="568" y="778" font-size="11" fill="#0f172a">ZK proof</text>
  <line x1="650" y1="774" x2="680" y2="774" stroke="#b45309" stroke-width="2.4" stroke-dasharray="6,3"/>
  <text x="688" y="778" font-size="11" fill="#0f172a">Registrar (registration)</text>
  <line x1="860" y1="774" x2="890" y2="774" stroke="#0f172a" stroke-width="2.4"/>
  <text x="898" y="778" font-size="11" fill="#0f172a">game lifecycle</text>
</svg>