<svg xmlns="http://www.w3.org/2000/svg" viewBox="0 0 1280 780" width="1280" height="780">
  <style>
    text { font-family: 'Inter', 'SF Pro Display', 'Helvetica Neue', Arial, sans-serif; fill: #e2e8f0; }
    .layer-label { font-size: 13px; font-weight: 700; letter-spacing: 0.05em; text-transform: uppercase; }
    .component-label { font-size: 11.5px; font-weight: 500; }
    .component-sub { font-size: 9.5px; fill: #94a3b8; }
    .title { font-size: 18px; font-weight: 700; fill: #ffffff; }
    .subtitle { font-size: 12px; fill: #64748b; }
    .differentiator-label { font-size: 10px; font-weight: 700; fill: #00D395; letter-spacing: 0.08em; }
  </style>
  <defs>
    <linearGradient id="bg-grad" x1="0%" y1="0%" x2="100%" y2="100%">
      <stop offset="0%" stop-color="#0A0A0A"/>
      <stop offset="100%" stop-color="#111118"/>
    </linearGradient>
    <filter id="glow-green" x="-5%" y="-5%" width="110%" height="110%">
      <feGaussianBlur stdDeviation="4" result="blur"/>
      <feMerge><feMergeNode in="blur"/><feMergeNode in="SourceGraphic"/></feMerge>
    </filter>
    <filter id="layer-shadow" x="-2%" y="-2%" width="104%" height="108%">
      <feDropShadow dx="0" dy="2" stdDeviation="3" flood-color="#000000" flood-opacity="0.4"/>
    </filter>
  </defs>

  <!-- Background -->
  <rect width="1280" height="780" fill="url(#bg-grad)"/>

  <!-- Title -->
  <text x="640" y="32" text-anchor="middle" class="title">Circle Arc Financial OS &#x2014; Platform Architecture</text>
  <text x="640" y="50" text-anchor="middle" class="subtitle">5-Layer Stack &#xB7; Stablecoin-Native &#xB7; EVM-Compatible</text>

  <!-- ═══════════════════════════════════════════════════════════ -->
  <!-- LAYER 5: APPLICATIONS  (y=65, h=100) -->
  <!-- ═══════════════════════════════════════════════════════════ -->
  <rect x="50" y="65" width="1180" height="100" rx="8" ry="8" fill="#1a1625" stroke="#4a3f6b" stroke-width="1" filter="url(#layer-shadow)"/>
  <text x="64" y="119" class="layer-label" fill="#4a3f6b" text-anchor="start" transform="rotate(-90, 64, 119)">APPLICATIONS</text>

  <!-- DeFi -->
  <rect x="85" y="80" width="276.3" height="70" rx="6" ry="6" fill="#0a1528" stroke="#3b82f6" stroke-width="1"/>
  <text x="223.1" y="111" text-anchor="middle" class="component-label" fill="#93bbfc">DeFi</text>
  <text x="223.1" y="127" text-anchor="middle" class="component-sub">Uniswap / Aave / Curve</text>

  <!-- Payments -->
  <rect x="371.3" y="80" width="276.3" height="70" rx="6" ry="6" fill="#2a1a0a" stroke="#FFA500" stroke-width="1"/>
  <text x="509.4" y="111" text-anchor="middle" class="component-label" fill="#FFA500">Payments</text>
  <text x="509.4" y="127" text-anchor="middle" class="component-sub">merchants / PSP / wallets</text>

  <!-- Capital Markets -->
  <rect x="657.6" y="80" width="276.3" height="70" rx="6" ry="6" fill="#1e1535" stroke="#a855f7" stroke-width="1"/>
  <text x="795.7" y="111" text-anchor="middle" class="component-label" fill="#c4a0f7">Capital Markets</text>
  <text x="795.7" y="127" text-anchor="middle" class="component-sub">tokenized assets / collateral</text>

  <!-- Agentic Commerce -->
  <rect x="943.9" y="80" width="276.3" height="70" rx="6" ry="6" fill="#1e1535" stroke="#a855f7" stroke-width="1"/>
  <text x="1082.0" y="111" text-anchor="middle" class="component-label" fill="#c4a0f7">Agentic Commerce</text>
  <text x="1082.0" y="127" text-anchor="middle" class="component-sub">AI Agent / micro-transactions</text>

  <!-- Layer indicator -->
  <circle cx="33" cy="115" r="10" fill="none" stroke="#475569" stroke-width="0.8"/>
  <text x="33" y="119" text-anchor="middle" font-size="10" fill="#64748b" font-weight="600">L5</text>

  <!-- ═══════════════════════════════════════════════════════════ -->
  <!-- LAYER 4: DEVELOPER KITS  (y=173, h=100) -->
  <!-- ═══════════════════════════════════════════════════════════ -->
  <rect x="50" y="173" width="1180" height="100" rx="8" ry="8" fill="#1a1a28" stroke="#3d3d5c" stroke-width="1" filter="url(#layer-shadow)"/>
  <text x="64" y="227" class="layer-label" fill="#3d3d5c" text-anchor="start" transform="rotate(-90, 64, 227)">DEVELOPER KITS</text>

  <!-- App Kits -->
  <rect x="85" y="188" width="276.3" height="70" rx="6" ry="6" fill="#1e1e2e" stroke="#444466" stroke-width="1"/>
  <text x="223.1" y="219" text-anchor="middle" class="component-label" fill="#e2e8f0">App Kits</text>
  <text x="223.1" y="235" text-anchor="middle" class="component-sub">Unified Balance / Bridge</text>

  <!-- Build with AI -->
  <rect x="371.3" y="188" width="276.3" height="70" rx="6" ry="6" fill="#1e1535" stroke="#a855f7" stroke-width="1"/>
  <text x="509.4" y="219" text-anchor="middle" class="component-label" fill="#c4a0f7">Build with AI</text>
  <text x="509.4" y="235" text-anchor="middle" class="component-sub">AI-assisted code gen</text>

  <!-- Smart Contracts -->
  <rect x="657.6" y="188" width="276.3" height="70" rx="6" ry="6" fill="#1e1e2e" stroke="#444466" stroke-width="1"/>
  <text x="795.7" y="219" text-anchor="middle" class="component-label" fill="#e2e8f0">Smart Contracts</text>
  <text x="795.7" y="235" text-anchor="middle" class="component-sub">Solidity / EVM tools</text>

  <!-- Nanopayments SDK -->
  <rect x="943.9" y="188" width="276.3" height="70" rx="6" ry="6" fill="#1e1e2e" stroke="#444466" stroke-width="1"/>
  <text x="1082.0" y="219" text-anchor="middle" class="component-label" fill="#e2e8f0">Nanopayments SDK</text>
  <text x="1082.0" y="235" text-anchor="middle" class="component-sub">ERC-8183</text>

  <!-- Layer indicator -->
  <circle cx="33" cy="223" r="10" fill="none" stroke="#475569" stroke-width="0.8"/>
  <text x="33" y="227" text-anchor="middle" font-size="10" fill="#64748b" font-weight="600">L4</text>

  <!-- ═══════════════════════════════════════════════════════════ -->
  <!-- LAYER 3: PROTOCOL SERVICES  (y=281, h=120)  ★ CORE DIFFERENTIATOR ★ -->
  <!-- ═══════════════════════════════════════════════════════════ -->
  <rect x="50" y="281" width="1180" height="120" rx="8" ry="8" fill="#0a1a14" stroke="#00D395" stroke-width="2" filter="url(#glow-green)"/>

  <!-- Core Differentiator badge -->
  <rect x="1070" y="285" width="150" height="18" rx="9" ry="9" fill="#00D395" fill-opacity="0.15" stroke="#00D395" stroke-width="0.5"/>
  <text x="1145" y="298" text-anchor="middle" class="differentiator-label">CORE DIFFERENTIATOR</text>

  <text x="64" y="345" class="layer-label" fill="#00D395" text-anchor="start" transform="rotate(-90, 64, 345)">PROTOCOL SERVICES</text>

  <!-- CCTP V2 -->
  <rect x="85" y="301" width="185.8" height="85" rx="6" ry="6" fill="#0a2018" stroke="#00D395" stroke-width="1"/>
  <text x="177.9" y="337" text-anchor="middle" class="component-label" fill="#00D395">CCTP V2</text>
  <text x="177.9" y="355" text-anchor="middle" class="component-sub">cross-chain USDC, 26 domains, $126B</text>

  <!-- Wallets -->
  <rect x="280.8" y="301" width="185.8" height="85" rx="6" ry="6" fill="#0a2018" stroke="#00D395" stroke-width="1"/>
  <text x="373.7" y="337" text-anchor="middle" class="component-label" fill="#00D395">Wallets</text>
  <text x="373.7" y="355" text-anchor="middle" class="component-sub">programmable</text>

  <!-- StableFX -->
  <rect x="476.6" y="301" width="185.8" height="85" rx="6" ry="6" fill="#0a2018" stroke="#00D395" stroke-width="1"/>
  <text x="569.5" y="337" text-anchor="middle" class="component-label" fill="#00D395">StableFX</text>
  <text x="569.5" y="355" text-anchor="middle" class="component-sub">institutional FX, RFQ + atomic</text>

  <!-- CPN -->
  <rect x="672.4" y="301" width="185.8" height="85" rx="6" ry="6" fill="#2a1a0a" stroke="#FFA500" stroke-width="1"/>
  <text x="765.3" y="337" text-anchor="middle" class="component-label" fill="#FFA500">CPN</text>
  <text x="765.3" y="355" text-anchor="middle" class="component-sub">Circle Payments Network</text>

  <!-- Paymaster -->
  <rect x="868.2" y="301" width="185.8" height="85" rx="6" ry="6" fill="#2a1a0a" stroke="#FFA500" stroke-width="1"/>
  <text x="961.1" y="337" text-anchor="middle" class="component-label" fill="#FFA500">Paymaster</text>
  <text x="961.1" y="355" text-anchor="middle" class="component-sub">fee sponsorship, multi-currency</text>

  <!-- Nanopayments -->
  <rect x="1064.0" y="301" width="156.0" height="85" rx="6" ry="6" fill="#0a2018" stroke="#00D395" stroke-width="1"/>
  <text x="1142.0" y="337" text-anchor="middle" class="component-label" fill="#00D395">Nanopayments</text>
  <text x="1142.0" y="355" text-anchor="middle" class="component-sub">streaming micro-tx</text>

  <!-- Layer indicator -->
  <circle cx="33" cy="341" r="10" fill="none" stroke="#475569" stroke-width="0.8"/>
  <text x="33" y="345" text-anchor="middle" font-size="10" fill="#64748b" font-weight="600">L3</text>

  <!-- ═══════════════════════════════════════════════════════════ -->
  <!-- LAYER 2: ASSETS & PROTOCOLS  (y=409, h=90) -->
  <!-- ═══════════════════════════════════════════════════════════ -->
  <rect x="50" y="409" width="1180" height="90" rx="8" ry="8" fill="#1a1520" stroke="#4a3558" stroke-width="1" filter="url(#layer-shadow)"/>
  <text x="64" y="458" class="layer-label" fill="#4a3558" text-anchor="start" transform="rotate(-90, 64, 458)">ASSETS &amp; PROTOCOLS</text>

  <!-- USDC -->
  <rect x="85" y="424" width="376.7" height="60" rx="6" ry="6" fill="#0a1528" stroke="#3b82f6" stroke-width="1"/>
  <text x="273.3" y="450" text-anchor="middle" class="component-label" fill="#93bbfc">USDC</text>
  <text x="273.3" y="466" text-anchor="middle" class="component-sub">native issuance</text>

  <!-- 8 Partner Stablecoins -->
  <rect x="471.7" y="424" width="376.7" height="60" rx="6" ry="6" fill="#1e1e2e" stroke="#444466" stroke-width="1"/>
  <text x="660.0" y="450" text-anchor="middle" class="component-label" fill="#e2e8f0">8 Partner Stablecoins</text>
  <text x="660.0" y="466" text-anchor="middle" class="component-sub">BRLA / KRW1 / PHPC / AUDF / MXNB / JPYC / QCAD / ZARU</text>

  <!-- ARC Token -->
  <rect x="858.4" y="424" width="361.6" height="60" rx="6" ry="6" fill="#1e1535" stroke="#a855f7" stroke-width="1"/>
  <text x="1039.2" y="450" text-anchor="middle" class="component-label" fill="#c4a0f7">ARC Token</text>
  <text x="1039.2" y="466" text-anchor="middle" class="component-sub">coordination asset</text>

  <!-- Layer indicator -->
  <circle cx="33" cy="454" r="10" fill="none" stroke="#475569" stroke-width="0.8"/>
  <text x="33" y="458" text-anchor="middle" font-size="10" fill="#64748b" font-weight="600">L2</text>

  <!-- ═══════════════════════════════════════════════════════════ -->
  <!-- LAYER 1: ARC CORE  (y=507, h=115) -->
  <!-- ═══════════════════════════════════════════════════════════ -->
  <rect x="50" y="507" width="1180" height="115" rx="8" ry="8" fill="#12120e" stroke="#3d3d28" stroke-width="1" filter="url(#layer-shadow)"/>
  <text x="64" y="568" class="layer-label" fill="#3d3d28" text-anchor="start" transform="rotate(-90, 64, 568)">ARC CORE</text>

  <!-- Malachite BFT -->
  <rect x="85" y="522" width="225.0" height="85" rx="6" ry="6" fill="#1e1e2e" stroke="#444466" stroke-width="1"/>
  <text x="197.5" y="558" text-anchor="middle" class="component-label" fill="#e2e8f0">Malachite BFT</text>
  <text x="197.5" y="576" text-anchor="middle" class="component-sub">~780ms finality</text>

  <!-- USDC Gas -->
  <rect x="320.0" y="522" width="225.0" height="85" rx="6" ry="6" fill="#2a1a0a" stroke="#FFA500" stroke-width="1"/>
  <text x="432.5" y="558" text-anchor="middle" class="component-label" fill="#FFA500">USDC Gas</text>
  <text x="432.5" y="576" text-anchor="middle" class="component-sub">stablecoin fees + EWMA</text>

  <!-- EVM Runtime -->
  <rect x="555.0" y="522" width="225.0" height="85" rx="6" ry="6" fill="#1e1e2e" stroke="#444466" stroke-width="1"/>
  <text x="667.5" y="558" text-anchor="middle" class="component-label" fill="#e2e8f0">EVM Runtime</text>
  <text x="667.5" y="576" text-anchor="middle" class="component-sub">full compatibility</text>

  <!-- Privacy Layer -->
  <rect x="790.0" y="522" width="225.0" height="85" rx="6" ry="6" fill="#1e1e2e" stroke="#444466" stroke-width="1"/>
  <text x="902.5" y="558" text-anchor="middle" class="component-label" fill="#e2e8f0">Privacy Layer</text>
  <text x="902.5" y="576" text-anchor="middle" class="component-sub">TEE + view keys</text>

  <!-- Validator Set -->
  <rect x="1025.0" y="522" width="195.0" height="85" rx="6" ry="6" fill="#1e1e2e" stroke="#444466" stroke-width="1"/>
  <text x="1122.5" y="558" text-anchor="middle" class="component-label" fill="#e2e8f0">Validator Set</text>
  <text x="1122.5" y="576" text-anchor="middle" class="component-sub">PoA &#x2192; PoS transition</text>

  <!-- Layer indicator -->
  <circle cx="33" cy="564" r="10" fill="none" stroke="#475569" stroke-width="0.8"/>
  <text x="33" y="568" text-anchor="middle" font-size="10" fill="#64748b" font-weight="600">L1</text>

  <!-- ═══════════════════════════════════════════════════════════ -->
  <!-- RIGHT-SIDE UPWARD FLOW ARROWS -->
  <!-- ═══════════════════════════════════════════════════════════ -->

  <!-- L1 -> L2 -->
  <line x1="1255" y1="517" x2="1255" y2="494" stroke="#334155" stroke-width="1" stroke-dasharray="4,3"/>
  <polygon points="1251,497 1255,489 1259,497" fill="#334155"/>

  <!-- L2 -> L3 -->
  <line x1="1255" y1="409" x2="1255" y2="396" stroke="#334155" stroke-width="1" stroke-dasharray="4,3"/>
  <polygon points="1251,399 1255,391 1259,399" fill="#334155"/>

  <!-- L3 -> L4 -->
  <line x1="1255" y1="281" x2="1255" y2="268" stroke="#334155" stroke-width="1" stroke-dasharray="4,3"/>
  <polygon points="1251,271 1255,263 1259,271" fill="#334155"/>

  <!-- L4 -> L5 -->
  <line x1="1255" y1="173" x2="1255" y2="160" stroke="#334155" stroke-width="1" stroke-dasharray="4,3"/>
  <polygon points="1251,163 1255,155 1259,163" fill="#334155"/>

  <!-- ═══════════════════════════════════════════════════════════ -->
  <!-- LEGEND (bottom) -->
  <!-- ═══════════════════════════════════════════════════════════ -->
  <text x="50" y="660" font-size="11" fill="#64748b" font-weight="600" letter-spacing="0.05em">LEGEND</text>

  <!-- Orange = Payments -->
  <rect x="50" y="670" width="14" height="14" rx="3" ry="3" fill="#2a1a0a" stroke="#FFA500" stroke-width="1"/>
  <text x="72" y="682" font-size="10.5" fill="#94a3b8">Payments / Fee Infrastructure</text>

  <!-- Green = Protocol Core -->
  <rect x="250" y="670" width="14" height="14" rx="3" ry="3" fill="#0a2018" stroke="#00D395" stroke-width="1"/>
  <text x="272" y="682" font-size="10.5" fill="#94a3b8">Protocol Services (Core Differentiator)</text>

  <!-- Blue = Assets -->
  <rect x="510" y="670" width="14" height="14" rx="3" ry="3" fill="#0a1528" stroke="#3b82f6" stroke-width="1"/>
  <text x="532" y="682" font-size="10.5" fill="#94a3b8">Assets / DeFi</text>

  <!-- Purple = AI / Coordination -->
  <rect x="660" y="670" width="14" height="14" rx="3" ry="3" fill="#1e1535" stroke="#a855f7" stroke-width="1"/>
  <text x="682" y="682" font-size="10.5" fill="#94a3b8">AI / Coordination / Capital Markets</text>

  <!-- Default = Infrastructure -->
  <rect x="910" y="670" width="14" height="14" rx="3" ry="3" fill="#1e1e2e" stroke="#444466" stroke-width="1"/>
  <text x="932" y="682" font-size="10.5" fill="#94a3b8">Core Infrastructure</text>

</svg>